<svg width="238" height="50" viewBox="0 0 238 50" fill="none" xmlns="http://www.w3.org/2000/svg">
<g clip-path="url(#clip0)">
<path d="M18.6631 38.8367C15.1828 40.2204 11.6825 40.1323 8.25388 38.5712C3.69647 36.4957 1.01018 32.9543 0.272533 28.0434C-0.701203 21.5573 0.924431 16.7215 5.2434 13.2588C7.80049 11.2103 10.5878 10.1837 13.5771 10.1837C15.2169 10.1837 16.9177 10.4938 18.6713 11.1128C12.3321 20.4626 12.3309 29.5374 18.6631 38.8367ZM47.975 10.9777C48.1042 10.3975 48.1489 9.9946 47.6097 9.66219C44.0719 7.48802 40.238 5.35731 35.7193 5.24807C30.2516 5.11417 25.5908 6.89955 21.4833 10.6994C22.9245 11.4863 24.3223 12.3391 25.6766 13.1648C28.3441 14.794 30.8636 16.3315 33.6826 17.3992C37.7162 18.9285 41.6087 18.212 45.2488 15.2756C46.6795 14.1221 47.5956 12.6774 47.975 10.9777ZM47.9774 38.9847C47.6708 37.722 47.0835 36.6238 46.185 35.6242C42.8291 31.8995 37.1594 30.7684 32.7042 32.9367C30.0273 34.2393 27.4138 35.7804 24.8873 37.2733C23.8031 37.917 22.7154 38.5524 21.6219 39.1797C21.6336 39.2255 21.8427 39.4533 21.8556 39.4733C25.0776 42.5167 28.848 44.2715 33.3619 44.7049C39.0211 45.2476 43.6572 42.8467 47.4453 40.4271C48.0807 40.0195 48.1207 39.5732 47.9774 38.9847ZM8.91283 40.5457C6.9125 39.8938 5.05312 38.8073 3.25247 37.2322C6.65409 43.6231 12.3696 47.9445 19.4618 49.4573C25.8927 50.8293 32.6971 49.5501 37.0572 46.2002C30.2751 47.0118 24.3704 44.0989 21.0393 41.0155C20.2606 40.2943 19.6897 40.1745 18.6948 40.521C15.5387 41.6228 12.2487 41.6322 8.91283 40.5457ZM17.3628 1.09707C11.0001 3.05394 5.66391 7.51386 3.23015 12.8512C7.96728 8.66848 13.307 7.57729 19.1024 9.60698C19.8365 9.86422 20.2159 9.67511 20.7809 9.15241C22.8834 7.21199 25.397 5.72261 28.2525 4.72538C30.8166 3.83034 33.5604 3.54374 37.3156 3.79628C33.3807 1.28265 29.0113 0 24.5384 0C22.1587 0 19.7496 0.364123 17.3628 1.09707Z" fill="#C20DD1"/>
<path d="M88.072 34.4026C86.1105 35.9965 83.5733 36.8739 80.9293 36.8739C74.4221 36.8739 70.0491 32.3858 70.0491 25.7071C70.0491 19.1317 74.3035 14.5391 80.3961 14.5391C83.1975 14.5391 85.3916 15.1969 87.3038 16.6099L87.5857 16.8178L89.5097 13.6605L89.303 13.4831C87.1218 11.6073 84.0279 10.616 80.355 10.616C71.7358 10.616 65.716 16.8213 65.716 25.7071C65.716 34.7327 71.6982 40.7982 80.6016 40.7982C84.2875 40.7982 87.9369 39.505 89.8985 37.5023L90.063 37.3356L88.3751 34.1583L88.072 34.4026ZM101.471 20.8737C95.4837 20.8737 91.3033 24.9706 91.3033 30.8365C91.3033 36.7024 95.4837 40.7982 101.471 40.7982C107.457 40.7982 111.638 36.7013 111.638 30.8365C111.638 24.9718 107.457 20.8737 101.471 20.8737ZM101.471 37.0795C97.9151 37.0795 95.432 34.5118 95.432 30.8354C95.432 27.2176 97.9715 24.5912 101.471 24.5912C105.026 24.5912 107.509 27.1589 107.509 30.8354C107.509 34.5118 105.026 37.0795 101.471 37.0795ZM123.788 20.9559C121.508 20.9559 119.396 21.9672 118.077 23.1054V21.2836H114.154V40.3871H118.077V26.8559C119.31 25.5074 121.172 24.6746 122.967 24.6746C126.304 24.6746 127.857 26.3719 127.857 30.0155V40.3883H131.78V29.4C131.781 23.7972 129.091 20.9559 123.788 20.9559ZM150.362 34.809C149.069 36.2737 147.275 37.0807 145.309 37.0807C141.584 37.0807 138.982 34.513 138.982 30.8365C138.982 26.9287 142.032 24.5924 144.98 24.5924C147.048 24.5924 148.709 25.195 150.055 26.4353L150.348 26.7043L152.193 23.5635L152.018 23.3885C150.35 21.7194 147.829 20.8737 144.529 20.8737C139.013 20.8737 134.854 25.1562 134.854 30.8365C134.854 36.7952 138.956 40.7982 145.062 40.7982C148.111 40.7982 150.859 39.6013 152.414 37.5975L152.554 37.4166L150.639 34.4942L150.362 34.809ZM163.503 20.8737C157.618 20.8737 153.664 24.8767 153.664 30.8365C153.664 36.888 157.671 40.7982 163.872 40.7982C166.624 40.7982 169.296 39.8621 171.022 38.294L171.186 38.1448L169.906 34.9171L169.563 35.2366C168.341 36.3724 166.256 37.0795 164.12 37.0795C160.737 37.0795 158.436 35.2131 158.034 32.1814H172.133L172.187 31.9277C172.328 31.27 172.399 30.5018 172.399 29.6455C172.399 24.563 168.658 20.8737 163.503 20.8737ZM157.849 28.8738C158.349 26.2592 160.467 24.5912 163.34 24.5912C166.205 24.5912 168.048 26.184 168.327 28.8738H157.849ZM183.86 20.9559C182.062 20.9559 180.67 21.5584 179.544 22.8376V21.2836H175.621V40.3871H179.544V27.0579C180.169 25.8668 181.086 24.6746 183.081 24.6746C184.145 24.6746 184.578 24.8297 185.421 25.3277L185.751 25.5227L187.118 21.8591L186.922 21.7158C186.175 21.1685 185.318 20.9559 183.86 20.9559ZM198.889 35.7863L198.555 36.0365C197.705 36.6743 196.789 36.9984 195.834 36.9984C194.562 36.9984 192.871 36.5556 192.871 32.7241V25.0035H199.642V21.2836H192.871V16.1553H188.948V33.0518C188.948 38.2094 190.945 40.716 195.054 40.716C196.91 40.716 198.75 40.1052 199.978 39.0833L200.156 38.9342L198.889 35.7863Z" fill="white"/>
<path d="M214.142 10.8626L201.519 40.3872H205.746L209.397 31.6893H222.06L225.753 40.3872H230.185L217.56 10.8626H214.142ZM211.061 27.7662L215.748 16.644L220.434 27.7662H211.061ZM233.617 11.0271V40.3883H237.746V11.0271H233.617Z" fill="#C20DD1"/>
</g>
<defs>
<clipPath id="clip0">
<rect width="237.745" height="50" fill="white"/>
</clipPath>
</defs>
</svg>
