<svg width="238" height="50" viewBox="0 0 238 50" fill="none" xmlns="http://www.w3.org/2000/svg">
<g clip-path="url(#clip0)">
<path d="M18.663 38.8367C15.1827 40.2204 11.6825 40.1323 8.25382 38.5712C3.69641 36.4957 1.01012 32.9543 0.272472 28.0434C-0.701264 21.5573 0.92437 16.7215 5.24334 13.2588C7.80043 11.2103 10.5877 10.1837 13.5771 10.1837C15.2168 10.1837 16.9176 10.4938 18.6713 11.1128C12.332 20.4626 12.3308 29.5374 18.663 38.8367ZM47.975 10.9777C48.1042 10.3975 48.1488 9.9946 47.6097 9.66219C44.0718 7.48802 40.2379 5.35731 35.7193 5.24807C30.2516 5.11417 25.5908 6.89955 21.4832 10.6994C22.9245 11.4863 24.3222 12.3391 25.6765 13.1648C28.344 14.794 30.8635 16.3315 33.6825 17.3992C37.7161 18.9285 41.6087 18.212 45.2487 15.2756C46.6794 14.1221 47.5956 12.6774 47.975 10.9777ZM47.9773 38.9847C47.6707 37.722 47.0835 36.6238 46.1849 35.6242C42.8291 31.8995 37.1593 30.7684 32.7041 32.9367C30.0272 34.2393 27.4138 35.7804 24.8872 37.2733C23.8031 37.917 22.7154 38.5524 21.6218 39.1797C21.6336 39.2255 21.8427 39.4533 21.8556 39.4733C25.0775 42.5167 28.8479 44.2715 33.3619 44.7049C39.0211 45.2476 43.6572 42.8467 47.4452 40.4271C48.0807 40.0195 48.1206 39.5732 47.9773 38.9847ZM8.91276 40.5457C6.91244 39.8938 5.05306 38.8073 3.25241 37.2322C6.65403 43.6231 12.3696 47.9445 19.4618 49.4573C25.8927 50.8293 32.6971 49.5501 37.0571 46.2002C30.2751 47.0118 24.3704 44.0989 21.0392 41.0155C20.2605 40.2943 19.6896 40.1745 18.6948 40.521C15.5386 41.6228 12.2486 41.6322 8.91276 40.5457ZM17.3628 1.09707C11 3.05394 5.66385 7.51386 3.23009 12.8512C7.96722 8.66848 13.3069 7.57729 19.1023 9.60698C19.8365 9.86422 20.2159 9.67511 20.7808 9.15241C22.8834 7.21199 25.397 5.72261 28.2524 4.72538C30.8165 3.83034 33.5604 3.54374 37.3156 3.79628C33.3807 1.28265 29.0112 0 24.5384 0C22.1586 0 19.7495 0.364123 17.3628 1.09707Z" fill="#C20DD1"/>
<path d="M88.0718 34.4026C86.1102 35.9965 83.5731 36.8739 80.9291 36.8739C74.4219 36.8739 70.0489 32.3858 70.0489 25.7071C70.0489 19.1317 74.3033 14.5391 80.3959 14.5391C83.1973 14.5391 85.3914 15.1969 87.3036 16.6099L87.5855 16.8178L89.5095 13.6605L89.3028 13.4831C87.1216 11.6073 84.0277 10.616 80.3547 10.616C71.7356 10.616 65.7158 16.8213 65.7158 25.7071C65.7158 34.7327 71.698 40.7982 80.6014 40.7982C84.2873 40.7982 87.9367 39.505 89.8983 37.5023L90.0627 37.3356L88.3749 34.1583L88.0718 34.4026ZM101.47 20.8737C95.4835 20.8737 91.3031 24.9706 91.3031 30.8365C91.3031 36.7024 95.4835 40.7982 101.47 40.7982C107.457 40.7982 111.638 36.7013 111.638 30.8365C111.638 24.9718 107.457 20.8737 101.47 20.8737ZM101.47 37.0795C97.9149 37.0795 95.4318 34.5118 95.4318 30.8354C95.4318 27.2176 97.9713 24.5912 101.47 24.5912C105.026 24.5912 107.509 27.1589 107.509 30.8354C107.509 34.5118 105.026 37.0795 101.47 37.0795ZM123.788 20.9559C121.508 20.9559 119.396 21.9672 118.077 23.1054V21.2836H114.154V40.3871H118.077V26.8559C119.31 25.5074 121.172 24.6746 122.967 24.6746C126.304 24.6746 127.856 26.3719 127.856 30.0155V40.3883H131.78V29.4C131.781 23.7972 129.091 20.9559 123.788 20.9559ZM150.362 34.809C149.068 36.2737 147.275 37.0807 145.308 37.0807C141.584 37.0807 138.982 34.513 138.982 30.8365C138.982 26.9287 142.031 24.5924 144.98 24.5924C147.048 24.5924 148.709 25.195 150.055 26.4353L150.347 26.7043L152.193 23.5635L152.018 23.3885C150.35 21.7194 147.829 20.8737 144.529 20.8737C139.013 20.8737 134.853 25.1562 134.853 30.8365C134.853 36.7952 138.956 40.7982 145.062 40.7982C148.111 40.7982 150.858 39.6013 152.414 37.5975L152.553 37.4166L150.639 34.4942L150.362 34.809ZM163.503 20.8737C157.618 20.8737 153.663 24.8767 153.663 30.8365C153.663 36.888 157.671 40.7982 163.872 40.7982C166.624 40.7982 169.296 39.8621 171.021 38.294L171.186 38.1448L169.906 34.9171L169.563 35.2366C168.341 36.3724 166.256 37.0795 164.12 37.0795C160.737 37.0795 158.436 35.2131 158.034 32.1814H172.133L172.187 31.9277C172.328 31.27 172.399 30.5018 172.399 29.6455C172.399 24.563 168.658 20.8737 163.503 20.8737ZM157.848 28.8738C158.349 26.2592 160.467 24.5912 163.34 24.5912C166.204 24.5912 168.047 26.184 168.327 28.8738H157.848ZM183.86 20.9559C182.061 20.9559 180.67 21.5584 179.544 22.8376V21.2836H175.621V40.3871H179.544V27.0579C180.169 25.8668 181.085 24.6746 183.081 24.6746C184.145 24.6746 184.577 24.8297 185.421 25.3277L185.751 25.5227L187.118 21.8591L186.922 21.7158C186.175 21.1685 185.317 20.9559 183.86 20.9559ZM198.889 35.7863L198.555 36.0365C197.705 36.6743 196.788 36.9984 195.833 36.9984C194.561 36.9984 192.871 36.5556 192.871 32.7241V25.0035H199.642V21.2836H192.871V16.1553H188.948V33.0518C188.948 38.2094 190.945 40.716 195.054 40.716C196.909 40.716 198.75 40.1052 199.977 39.0833L200.156 38.9342L198.889 35.7863Z" fill="#000F8C"/>
<path d="M214.142 10.8626L201.519 40.3872H205.746L209.397 31.6893H222.06L225.753 40.3872H230.185L217.56 10.8626H214.142ZM211.061 27.7662L215.748 16.644L220.435 27.7662H211.061ZM233.617 11.0271V40.3883H237.746V11.0271H233.617Z" fill="#C20DD1"/>
</g>
<defs>
<clipPath id="clip0">
<rect width="237.745" height="50" fill="white"/>
</clipPath>
</defs>
</svg>
